<svg width="160" height="30" viewBox="0 0 160 30" fill="none" xmlns="http://www.w3.org/2000/svg">
<rect x="0.5" y="0.5" width="159" height="29" rx="14.5" fill="#F2F2F2" stroke="#BDBDBD"/>
<path d="M54.4611 20H53.1418L48.131 12.3301V20H46.8117V10.0469H48.131L53.1554 17.751V10.0469H54.4611V20ZM56.4589 16.2334C56.4589 15.5088 56.6002 14.8571 56.8828 14.2783C57.1699 13.6995 57.5664 13.2529 58.0722 12.9385C58.5826 12.624 59.1637 12.4668 59.8154 12.4668C60.8226 12.4668 61.636 12.8154 62.2558 13.5127C62.8802 14.21 63.1923 15.1374 63.1923 16.2949V16.3838C63.1923 17.1038 63.0533 17.751 62.7754 18.3252C62.5019 18.8949 62.1077 19.3392 61.5927 19.6582C61.0823 19.9772 60.4944 20.1367 59.8291 20.1367C58.8265 20.1367 58.013 19.7881 57.3886 19.0908C56.7688 18.3936 56.4589 17.4707 56.4589 16.3223V16.2334ZM57.7304 16.3838C57.7304 17.2041 57.9196 17.8626 58.2978 18.3594C58.6806 18.8561 59.191 19.1045 59.8291 19.1045C60.4716 19.1045 60.9821 18.8538 61.3603 18.3525C61.7386 17.8467 61.9277 17.1403 61.9277 16.2334C61.9277 15.4222 61.734 14.766 61.3466 14.2646C60.9638 13.7588 60.4534 13.5059 59.8154 13.5059C59.191 13.5059 58.6875 13.7542 58.3046 14.251C57.9218 14.7477 57.7304 15.4587 57.7304 16.3838ZM74.3453 17.4023H70.1754L69.2388 20H67.8853L71.6861 10.0469H72.8345L76.6422 20H75.2955L74.3453 17.4023ZM70.5718 16.3223H73.9556L72.2603 11.667L70.5718 16.3223ZM80.9505 19.1045C81.4017 19.1045 81.7959 18.9678 82.1332 18.6943C82.4704 18.4209 82.6573 18.0791 82.6937 17.6689H83.89C83.8672 18.0928 83.7214 18.4961 83.4525 18.8789C83.1836 19.2617 82.8236 19.5671 82.3724 19.7949C81.9258 20.0228 81.4518 20.1367 80.9505 20.1367C79.9434 20.1367 79.1413 19.8018 78.5443 19.1318C77.9518 18.4574 77.6556 17.5368 77.6556 16.3701V16.1582C77.6556 15.4382 77.7878 14.7979 78.0521 14.2373C78.3164 13.6768 78.6947 13.2415 79.1869 12.9316C79.6836 12.6217 80.2692 12.4668 80.9437 12.4668C81.7731 12.4668 82.4613 12.7152 83.0082 13.2119C83.5596 13.7087 83.8535 14.3535 83.89 15.1465H82.6937C82.6573 14.668 82.475 14.276 82.1468 13.9707C81.8233 13.6608 81.4222 13.5059 80.9437 13.5059C80.3011 13.5059 79.8021 13.7383 79.4466 14.2031C79.0957 14.6634 78.9203 15.3311 78.9203 16.2061V16.4453C78.9203 17.2975 79.0957 17.9538 79.4466 18.4141C79.7976 18.8743 80.2989 19.1045 80.9505 19.1045ZM88.4787 19.1045C88.9298 19.1045 89.3241 18.9678 89.6613 18.6943C89.9985 18.4209 90.1854 18.0791 90.2218 17.6689H91.4181C91.3953 18.0928 91.2495 18.4961 90.9806 18.8789C90.7117 19.2617 90.3517 19.5671 89.9006 19.7949C89.4539 20.0228 88.98 20.1367 88.4787 20.1367C87.4715 20.1367 86.6694 19.8018 86.0724 19.1318C85.48 18.4574 85.1838 17.5368 85.1838 16.3701V16.1582C85.1838 15.4382 85.3159 14.7979 85.5802 14.2373C85.8446 13.6768 86.2228 13.2415 86.715 12.9316C87.2117 12.6217 87.7974 12.4668 88.4718 12.4668C89.3013 12.4668 89.9894 12.7152 90.5363 13.2119C91.0877 13.7087 91.3817 14.3535 91.4181 15.1465H90.2218C90.1854 14.668 90.0031 14.276 89.675 13.9707C89.3514 13.6608 88.9504 13.5059 88.4718 13.5059C87.8293 13.5059 87.3302 13.7383 86.9748 14.2031C86.6239 14.6634 86.4484 15.3311 86.4484 16.2061V16.4453C86.4484 17.2975 86.6239 17.9538 86.9748 18.4141C87.3257 18.8743 87.827 19.1045 88.4787 19.1045ZM96.1093 20.1367C95.1067 20.1367 94.291 19.8086 93.6621 19.1523C93.0332 18.4915 92.7187 17.6097 92.7187 16.5068V16.2744C92.7187 15.5407 92.8577 14.8867 93.1357 14.3125C93.4183 13.7337 93.8102 13.2826 94.3115 12.959C94.8173 12.6309 95.3642 12.4668 95.9521 12.4668C96.9137 12.4668 97.6611 12.7835 98.1943 13.417C98.7275 14.0505 98.9941 14.9574 98.9941 16.1377V16.6641H93.9834C94.0016 17.3932 94.2135 17.9834 94.6191 18.4346C95.0293 18.8812 95.5488 19.1045 96.1777 19.1045C96.6243 19.1045 97.0026 19.0133 97.3125 18.8311C97.6224 18.6488 97.8935 18.4072 98.1259 18.1064L98.8984 18.708C98.2786 19.6605 97.3489 20.1367 96.1093 20.1367ZM95.9521 13.5059C95.4417 13.5059 95.0133 13.6927 94.667 14.0664C94.3206 14.4355 94.1064 14.9551 94.0244 15.625H97.7295V15.5293C97.693 14.8867 97.5198 14.39 97.2099 14.0391C96.9 13.6836 96.4808 13.5059 95.9521 13.5059ZM104.97 18.0381C104.97 17.6963 104.841 17.432 104.581 17.2451C104.326 17.0537 103.877 16.8896 103.234 16.7529C102.596 16.6162 102.088 16.4521 101.71 16.2607C101.336 16.0693 101.058 15.8415 100.876 15.5771C100.698 15.3128 100.609 14.9984 100.609 14.6338C100.609 14.0277 100.864 13.515 101.375 13.0957C101.89 12.6764 102.546 12.4668 103.344 12.4668C104.182 12.4668 104.861 12.6833 105.381 13.1162C105.905 13.5492 106.167 14.1029 106.167 14.7773H104.895C104.895 14.431 104.747 14.1325 104.451 13.8818C104.159 13.6312 103.79 13.5059 103.344 13.5059C102.883 13.5059 102.523 13.6061 102.263 13.8066C102.004 14.0072 101.874 14.2692 101.874 14.5928C101.874 14.8981 101.995 15.1283 102.236 15.2832C102.478 15.4382 102.913 15.5863 103.542 15.7275C104.175 15.8688 104.688 16.0374 105.08 16.2334C105.472 16.4294 105.761 16.6663 105.948 16.9443C106.139 17.2178 106.235 17.5527 106.235 17.9492C106.235 18.61 105.971 19.141 105.442 19.542C104.914 19.9385 104.228 20.1367 103.385 20.1367C102.792 20.1367 102.268 20.0319 101.812 19.8223C101.357 19.6126 100.999 19.321 100.739 18.9473C100.484 18.569 100.356 18.1611 100.356 17.7236H101.621C101.644 18.1475 101.812 18.4847 102.127 18.7354C102.446 18.9814 102.865 19.1045 103.385 19.1045C103.863 19.1045 104.246 19.0088 104.533 18.8174C104.825 18.6214 104.97 18.3617 104.97 18.0381ZM112.389 18.0381C112.389 17.6963 112.259 17.432 112 17.2451C111.744 17.0537 111.295 16.8896 110.653 16.7529C110.015 16.6162 109.507 16.4521 109.128 16.2607C108.755 16.0693 108.477 15.8415 108.294 15.5771C108.117 15.3128 108.028 14.9984 108.028 14.6338C108.028 14.0277 108.283 13.515 108.794 13.0957C109.308 12.6764 109.965 12.4668 110.762 12.4668C111.601 12.4668 112.28 12.6833 112.799 13.1162C113.323 13.5492 113.586 14.1029 113.586 14.7773H112.314C112.314 14.431 112.166 14.1325 111.87 13.8818C111.578 13.6312 111.209 13.5059 110.762 13.5059C110.302 13.5059 109.942 13.6061 109.682 13.8066C109.422 14.0072 109.293 14.2692 109.293 14.5928C109.293 14.8981 109.413 15.1283 109.655 15.2832C109.896 15.4382 110.332 15.5863 110.961 15.7275C111.594 15.8688 112.107 16.0374 112.499 16.2334C112.891 16.4294 113.18 16.6663 113.367 16.9443C113.558 17.2178 113.654 17.5527 113.654 17.9492C113.654 18.61 113.39 19.141 112.861 19.542C112.332 19.9385 111.646 20.1367 110.803 20.1367C110.211 20.1367 109.687 20.0319 109.231 19.8223C108.775 19.6126 108.418 19.321 108.158 18.9473C107.903 18.569 107.775 18.1611 107.775 17.7236H109.04C109.062 18.1475 109.231 18.4847 109.545 18.7354C109.864 18.9814 110.284 19.1045 110.803 19.1045C111.282 19.1045 111.665 19.0088 111.952 18.8174C112.243 18.6214 112.389 18.3617 112.389 18.0381Z" fill="#BDBDBD"/>
</svg>
